<?xml version="1.0" standalone="no"?>
<!DOCTYPE svg PUBLIC "-//W3C//DTD SVG 20010904//EN"
 "http://www.w3.org/TR/2001/REC-SVG-20010904/DTD/svg10.dtd">
<svg version="1.0" xmlns="http://www.w3.org/2000/svg"
 width="400.000000pt" height="400.000000pt" viewBox="0 0 400.000000 400.000000"
 preserveAspectRatio="xMidYMid meet">
<metadata>
Created by potrace 1.14, written by Peter Selinger 2001-2017
</metadata>
<g transform="translate(0.000000,400.000000) scale(0.100000,-0.100000)"
fill="#000000" stroke="none">
<path d="M0 3725 c0 -151 3 -275 8 -275 29 0 84 24 93 42 8 15 14 17 22 9 8
-8 8 -14 -1 -23 -7 -7 -12 -29 -12 -49 0 -44 -11 -54 -65 -54 l-40 0 -3 -52
c-2 -32 1 -53 7 -53 6 0 11 -7 11 -15 0 -19 3 -19 70 4 30 11 68 31 85 46 l30
27 14 -21 c7 -12 20 -21 27 -21 17 0 18 -22 3 -37 -8 -8 -7 -17 2 -32 12 -18
11 -22 -6 -35 -31 -24 -12 -19 48 13 45 24 64 28 99 24 39 -5 88 -35 88 -55 0
-14 -79 -61 -94 -55 -10 4 -12 0 -9 -14 6 -23 -23 -59 -48 -59 -18 0 -32 15
-35 38 -4 21 -9 23 -38 13 -16 -7 -26 -18 -26 -31 0 -11 -6 -20 -14 -20 -8 0
-16 -3 -18 -7 -1 -5 -20 -16 -41 -25 -28 -14 -37 -24 -37 -43 0 -14 -5 -25
-11 -25 -8 0 -8 -4 0 -14 10 -12 8 -19 -8 -35 -12 -12 -26 -21 -31 -21 -6 0
-16 -11 -22 -25 -12 -27 -31 -35 -22 -10 5 11 2 13 -10 9 -13 -5 -16 -17 -15
-49 2 -35 6 -41 21 -37 13 3 18 -1 18 -17 0 -19 -3 -20 -20 -11 -18 9 -20 8
-20 -16 0 -21 4 -25 20 -21 11 3 27 -1 35 -10 8 -8 15 -10 15 -4 0 6 4 11 8
11 4 0 5 -27 2 -61 -5 -49 -11 -64 -30 -79 -20 -15 -22 -20 -11 -34 7 -9 18
-16 23 -16 6 0 24 -10 41 -22 18 -13 45 -24 62 -25 78 -7 115 -15 115 -25 0
-5 -7 -7 -16 -4 -25 10 -52 -3 -49 -22 1 -9 0 -12 -2 -6 -2 5 -20 10 -41 10
-20 1 -29 -1 -19 -3 14 -4 16 -8 6 -19 -9 -12 -15 -8 -31 23 -13 27 -33 45
-66 61 -26 12 -50 22 -54 22 -5 0 -8 -560 -8 -1245 l0 -1245 2000 0 2000 0 0
1341 c0 1216 -2 1344 -16 1375 -20 42 -31 49 -49 34 -8 -6 -18 -9 -22 -7 -27
17 -61 -60 -42 -95 11 -21 -5 -33 -20 -14 -13 15 -4 96 10 96 5 0 9 5 9 10 0
6 -7 10 -15 10 -8 0 -15 -5 -15 -12 0 -6 -8 -2 -17 8 -25 27 -81 56 -93 49 -6
-3 -10 -13 -10 -21 0 -11 -4 -10 -19 4 -10 9 -18 21 -17 27 1 5 -9 11 -22 13
-20 3 -22 0 -16 -22 9 -38 -8 -32 -42 14 -34 46 -40 48 -48 18 -9 -35 -7 -41
9 -34 8 3 15 1 15 -4 0 -6 -4 -10 -9 -10 -5 0 -16 -3 -25 -6 -20 -8 -21 13 -4
69 l12 39 60 -6 c33 -3 70 -13 82 -21 13 -8 32 -15 43 -15 11 0 38 -18 61 -41
45 -44 62 -47 34 -5 -22 35 -11 43 31 23 20 -9 42 -17 50 -17 8 0 23 -9 34
-21 11 -12 24 -18 29 -15 6 3 13 0 15 -6 3 -8 6 -6 6 5 1 26 -29 67 -49 67
-18 0 -24 20 -35 123 -2 27 -7 53 -11 58 -3 6 -1 23 6 39 8 20 9 38 1 65 -6
24 -7 44 -1 55 14 26 -10 71 -35 68 -11 -2 -22 -12 -24 -23 -2 -11 -12 -31
-23 -44 -13 -17 -17 -33 -13 -53 4 -15 3 -33 -2 -40 -4 -7 -8 -31 -8 -53 0
-33 -3 -40 -20 -40 -11 0 -25 -6 -31 -14 -8 -11 -15 -11 -32 -2 -24 13 -28 26
-12 36 5 3 10 17 10 30 0 13 5 35 11 49 15 31 -7 57 -49 58 -22 1 -31 8 -40
31 -10 27 -9 33 8 49 11 10 20 27 20 37 0 11 7 21 15 25 22 8 33 -44 11 -56
-9 -5 -16 -22 -16 -40 l0 -31 23 20 c12 12 37 24 54 28 44 9 50 22 13 30 -27
6 -30 10 -30 47 0 39 -1 40 -27 33 -23 -5 -26 -4 -15 6 6 7 12 25 12 40 0 15
6 29 13 32 9 3 9 9 -1 26 -11 19 -10 21 12 21 28 0 51 24 42 46 -3 8 1 38 10
65 l16 49 31 -46 c34 -51 30 -73 -14 -85 -18 -5 -11 -7 23 -8 26 -1 49 -5 52
-10 3 -4 1 -35 -4 -67 -10 -60 -6 -94 11 -94 5 0 9 15 9 33 0 19 12 50 30 77
16 25 30 52 30 60 0 8 7 24 15 34 12 16 15 65 15 263 l0 243 -1229 0 -1229 0
-6 -25 c-7 -29 -26 -24 -26 6 0 16 -7 19 -45 19 -49 0 -49 1 -48 -91 0 -35 -2
-37 -41 -43 -22 -4 -48 -14 -58 -23 -22 -20 -154 -25 -170 -6 -6 7 -9 13 -7
14 2 0 14 2 26 3 12 1 30 13 41 26 16 20 21 21 39 10 18 -12 25 -10 51 11 36
28 37 32 16 64 -12 19 -22 23 -39 19 -13 -3 -26 -1 -29 5 -5 8 -193 11 -627
11 l-619 0 0 -275z m2960 236 c0 -5 3 -17 7 -27 4 -12 3 -15 -5 -10 -8 5 -12
-1 -12 -18 0 -14 5 -28 10 -31 15 -10 12 -25 -7 -32 -10 -3 -25 -12 -35 -20
-9 -8 -18 -10 -22 -5 -7 12 44 152 55 152 5 0 9 -4 9 -9z m-360 -35 c0 -17 49
-66 77 -77 32 -12 46 -4 82 47 38 53 75 60 85 18 9 -34 -2 -84 -18 -84 -7 0
-17 -5 -24 -12 -18 -18 5 -38 44 -38 31 0 34 -3 34 -29 0 -33 37 -104 50 -96
4 3 11 34 15 69 7 70 25 97 49 77 17 -14 28 -51 15 -51 -5 0 -9 -18 -9 -41 0
-22 -5 -50 -11 -61 -19 -36 -12 -123 15 -170 27 -48 46 -60 46 -29 0 17 6 21
34 21 22 0 36 6 40 16 10 26 -4 37 -40 31 -19 -3 -36 -1 -40 5 -3 5 -6 43 -6
83 0 73 0 73 42 112 39 37 40 41 25 56 -9 10 -21 17 -26 17 -5 0 -9 12 -9 26
0 19 -7 28 -30 37 -16 6 -30 17 -30 25 0 10 7 8 28 -6 15 -10 47 -22 71 -26
27 -4 50 -15 61 -29 18 -21 20 -21 32 -5 10 14 22 16 51 12 21 -4 37 -12 37
-20 0 -19 -19 -27 -34 -15 -7 6 -16 8 -19 4 -15 -14 -6 -43 18 -59 20 -13 31
-14 56 -5 18 6 39 11 48 11 23 0 42 -50 35 -88 -5 -25 -3 -32 9 -32 9 0 23 -7
32 -16 8 -9 33 -18 54 -21 l39 -5 -20 -33 c-19 -34 -13 -50 16 -39 11 4 16 1
16 -10 0 -9 6 -16 14 -16 8 0 17 -8 20 -17 4 -10 24 -37 46 -61 45 -48 44 -37
2 -181 -20 -70 -36 -86 -47 -49 -4 13 -18 37 -31 55 -13 17 -24 43 -24 56 0
20 -4 23 -25 20 -19 -4 -25 0 -30 20 -11 42 -2 62 28 65 25 3 27 1 29 -35 l1
-38 4 37 c2 20 -1 46 -7 57 -9 18 -19 20 -70 18 -64 -4 -88 -14 -53 -23 22 -6
47 -51 42 -75 -6 -28 14 -155 27 -182 8 -15 16 -49 18 -75 2 -26 7 -59 11 -74
6 -23 4 -28 -11 -28 -11 0 -30 6 -44 13 -21 11 -25 20 -25 59 -1 38 -7 55 -34
88 -18 22 -41 61 -52 85 -20 46 -43 57 -67 33 -10 -10 -18 -6 -36 17 -21 26
-31 30 -75 30 -28 0 -51 -3 -51 -8 0 -14 53 -58 94 -79 94 -48 186 -139 186
-183 0 -14 -18 -53 -30 -65 -8 -8 -7 -80 0 -80 13 0 50 -37 43 -44 -3 -3 -16
-6 -27 -6 -20 -1 -20 -1 -2 -15 10 -8 23 -12 27 -9 5 3 9 -5 9 -16 0 -13 -8
-24 -20 -27 -23 -6 -24 -13 -8 -47 9 -22 8 -29 -6 -45 -12 -13 -14 -21 -6 -26
8 -5 7 -11 -2 -22 -7 -9 -13 -23 -13 -31 0 -8 -6 -17 -14 -20 -9 -3 -11 1 -7
15 5 15 -2 21 -42 32 -26 8 -54 17 -62 20 -12 4 -12 0 3 -22 15 -23 15 -27 2
-27 -8 0 -15 6 -15 13 0 9 -2 9 -8 1 -12 -19 -80 16 -93 48 -6 15 -8 31 -5 36
3 5 -1 15 -9 22 -20 17 -10 29 18 23 21 -6 20 -4 -5 20 -16 14 -28 35 -28 46
0 11 -5 23 -11 27 -7 4 -9 24 -6 51 3 33 2 43 -8 39 -13 -5 -39 51 -51 112 -4
22 -12 32 -24 32 -10 0 -21 6 -23 13 -3 7 -6 6 -6 -5 -1 -9 3 -19 8 -22 5 -3
12 -34 16 -68 4 -35 13 -70 19 -78 17 -21 38 -98 31 -111 -4 -5 0 -20 8 -32
12 -18 29 -97 21 -97 -1 0 -9 -3 -18 -6 -16 -6 -66 62 -66 90 0 8 -23 59 -50
112 -32 61 -48 103 -45 115 4 13 2 19 -8 19 -8 0 -19 18 -26 43 -7 23 -22 49
-33 58 -18 14 -19 17 -4 22 10 4 19 1 22 -8 8 -20 24 -9 24 17 0 19 1 19 21
-3 l20 -24 -6 40 c-8 51 -20 63 -34 36 -16 -29 -51 -27 -121 10 -66 34 -68 37
-90 94 -14 35 -19 39 -54 42 -44 2 -86 27 -93 54 -3 10 -11 19 -17 19 -19 0
-20 119 -1 126 10 4 13 14 9 31 -5 19 0 31 20 49 21 20 26 34 26 70 l0 46 33
-7 c17 -4 40 -9 50 -11 9 -3 17 -1 17 5 0 6 -4 11 -10 11 -5 0 -17 11 -25 24
-14 21 -14 28 -3 45 11 18 11 23 -1 30 -13 8 -24 114 -14 134 6 11 23 -2 23
-17z m-680 -62 c0 -16 -9 -18 -29 -5 -7 5 -11 14 -7 19 9 15 36 4 36 -14z
m-1042 -56 c2 -29 -1 -39 -17 -48 -12 -6 -21 -21 -21 -34 0 -28 -33 -41 -51
-20 -9 11 -7 24 11 58 12 25 19 50 15 56 -9 15 14 31 40 28 15 -2 21 -12 23
-40z m2164 10 c-2 -10 -8 -18 -13 -18 -5 0 -9 8 -9 18 0 10 6 19 14 19 8 0 11
-8 8 -19z m-532 -30 c17 -19 18 -23 6 -28 -11 -3 -12 -9 -6 -20 14 -22 12 -30
-9 -30 -21 0 -51 49 -51 82 0 25 34 23 60 -4z m1460 14 c0 -13 -12 -22 -22
-16 -10 6 -1 24 13 24 5 0 9 -4 9 -8z m-2310 -48 c0 -8 -4 -12 -10 -9 -5 3
-10 10 -10 16 0 5 5 9 10 9 6 0 10 -7 10 -16z m1804 -23 c23 -25 14 -40 -19
-33 -18 3 -25 11 -25 28 0 29 20 31 44 5z m-1066 -49 c15 -10 36 -23 47 -28
28 -16 31 -50 5 -64 -18 -9 -25 -8 -42 7 -18 16 -58 84 -58 98 0 10 21 5 48
-13z m-1119 -36 c-7 -8 -79 5 -79 14 0 4 10 12 23 17 17 9 26 7 41 -8 11 -10
18 -21 15 -23z m-267 18 c28 -14 34 -14 72 0 23 9 52 16 65 16 30 0 22 -24
-10 -28 -36 -6 -51 -22 -44 -49 7 -30 -20 -32 -35 -2 -8 14 -19 20 -39 17 -32
-3 -66 25 -57 47 7 19 10 19 48 -1z m2513 -23 c3 -7 4 -15 2 -17 -5 -6 -67 35
-67 45 0 14 59 -11 65 -28z m-1398 -3 c-3 -8 -6 -5 -6 6 -1 11 2 17 5 13 3 -3
4 -12 1 -19z m-447 -52 c0 -3 -15 -6 -33 -6 -23 0 -40 -9 -60 -30 -32 -33 -52
-38 -61 -15 -3 10 -19 15 -42 15 -24 0 -34 4 -32 13 7 20 50 37 95 37 25 0 45
6 50 14 14 23 47 23 66 0 9 -12 17 -25 17 -28z m2224 22 c9 -17 16 -44 16 -60
0 -23 -4 -28 -24 -28 -22 0 -24 3 -19 41 5 32 2 44 -11 51 -22 12 -20 28 3 28
12 0 26 -13 35 -32z m-3352 -10 c-16 -17 -25 -19 -33 -11 -8 8 -4 15 17 26 37
19 44 13 16 -15z m1596 -23 c-3 -3 -9 2 -12 12 -6 14 -5 15 5 6 7 -7 10 -15 7
-18z m-230 -23 c3 -21 1 -22 -17 -13 -11 6 -26 10 -33 9 -6 -2 -14 5 -16 15
-3 15 2 18 30 15 26 -2 34 -8 36 -26z m502 8 c8 -5 11 -12 7 -16 -4 -4 -15 0
-24 9 -18 18 -8 23 17 7z m-1764 -22 c-22 -31 -20 -48 4 -48 12 0 24 9 29 22
8 22 8 22 40 -10 38 -37 38 -67 1 -67 -18 0 -25 -5 -24 -17 2 -20 -26 -24 -57
-8 -15 9 -26 6 -54 -16 -40 -30 -44 -44 -15 -51 23 -6 26 -18 7 -26 -17 -6
-66 3 -73 14 -3 5 -16 9 -30 9 -19 0 -28 8 -40 35 -7 19 -14 39 -14 44 0 16
49 25 65 11 19 -16 125 -3 125 16 0 7 -5 25 -11 40 -16 45 -4 74 32 74 29 0
30 -1 15 -22z m1339 12 c4 -6 1 -18 -7 -27 -10 -13 -10 -17 0 -20 17 -6 15
-23 -3 -23 -16 0 -30 42 -21 65 6 17 22 20 31 5z m-1455 -70 c0 -5 -4 -10 -10
-10 -5 0 -10 5 -10 10 0 6 5 10 10 10 6 0 10 -4 10 -10z m1224 -90 c23 0 43
-7 56 -20 11 -11 29 -20 40 -20 11 0 20 -5 20 -10 0 -12 -63 -4 -92 12 -10 5
-48 8 -85 7 -94 -2 -103 -1 -103 12 0 6 6 9 14 6 8 -3 17 0 20 8 6 16 54 24
78 13 9 -4 33 -8 52 -8z m-292 -62 c-4 -22 14 -24 22 -3 6 17 15 19 36 5 22
-14 -36 -55 -80 -56 -41 -2 -90 14 -90 28 0 15 -63 0 -73 -17 -10 -19 -27 -19
-27 0 0 8 5 15 11 15 7 0 22 11 34 24 19 21 30 23 96 22 65 -1 74 -3 71 -18z
m-267 -19 c13 -12 -3 -25 -40 -33 -24 -5 -33 -2 -43 15 -11 18 -11 23 -1 30
15 9 69 1 84 -12z m-666 -8 c11 -7 9 -11 -9 -21 -25 -13 -35 -8 -27 15 7 17
16 19 36 6z m781 -51 c0 -5 -7 -10 -15 -10 -8 0 -15 5 -15 10 0 6 7 10 15 10
8 0 15 -4 15 -10z m1293 -2 c21 -10 27 -20 27 -45 0 -17 5 -35 10 -38 15 -9
12 -25 -5 -25 -36 0 -97 42 -111 75 -8 19 -14 37 -14 40 0 10 66 5 93 -7z
m-1803 -34 c0 -8 -4 -12 -10 -9 -5 3 -10 10 -10 16 0 5 5 9 10 9 6 0 10 -7 10
-16z m800 -9 c-7 -8 -16 -15 -21 -15 -5 0 -6 7 -3 15 4 8 13 15 21 15 13 0 13
-3 3 -15z m896 -18 c9 -18 30 -42 47 -54 31 -20 118 -45 164 -48 32 -1 63 -34
63 -67 0 -37 -32 -38 -67 0 l-26 27 7 -34 c6 -33 6 -33 -26 -27 -18 4 -54 18
-80 31 -26 14 -53 23 -60 20 -15 -6 -98 87 -98 110 0 18 39 75 52 75 5 0 15
-15 24 -33z m-1015 8 c0 -13 -41 -19 -41 -7 0 11 20 22 33 18 5 -1 8 -6 8 -11z
m2398 -7 c0 -7 -6 -29 -13 -48 -12 -32 -13 -33 -19 -11 -3 13 -1 34 5 47 12
25 29 33 27 12z m-3089 -6 c0 -23 -69 -60 -89 -47 -15 9 -2 35 14 28 8 -2 24
2 37 11 25 18 38 20 38 8z m85 -1 c3 -5 -6 -18 -20 -29 -14 -11 -25 -25 -25
-31 0 -6 -7 -11 -15 -11 -8 0 -19 -9 -26 -21 -10 -19 -9 -20 11 -14 31 10 21
-16 -12 -33 -17 -8 -28 -23 -32 -46 -4 -19 -13 -39 -21 -46 -20 -16 -19 -30 1
-30 9 0 21 14 27 30 6 17 15 30 19 30 4 0 8 11 8 24 0 13 11 31 25 42 14 10
25 26 25 34 0 8 11 27 25 42 14 15 25 32 25 39 0 8 12 9 37 4 50 -9 56 -14 42
-31 -6 -8 -9 -18 -5 -22 4 -4 13 0 20 9 19 26 172 40 259 24 41 -8 41 -8 28
-33 -6 -9 -12 -29 -15 -44 -4 -19 -11 -26 -21 -22 -8 4 -22 1 -30 -6 -12 -10
-18 -10 -29 -1 -12 10 -19 9 -34 -6 -59 -56 -128 -97 -149 -88 -19 7 -43 -5
-43 -22 0 -8 5 -11 11 -8 5 4 19 -1 29 -10 17 -15 19 -15 28 2 10 16 12 16 21
-9 12 -31 27 -35 51 -13 21 19 113 38 103 21 -4 -6 -21 -27 -39 -46 -18 -19
-41 -46 -53 -60 -17 -21 -22 -23 -31 -10 -8 12 -19 6 -61 -37 -29 -29 -58 -53
-65 -53 -8 0 -14 -8 -14 -18 0 -29 12 -34 27 -12 8 11 21 20 28 20 10 0 5 -14
-17 -45 -18 -25 -36 -45 -40 -45 -23 0 -58 -51 -58 -83 0 -19 -8 -45 -19 -58
-10 -13 -21 -34 -25 -47 -4 -12 -16 -27 -27 -32 -10 -6 -19 -17 -19 -25 0 -21
-20 -19 -21 3 0 9 -6 3 -12 -15 -10 -27 -39 -59 -102 -111 -33 -28 -13 10 29
54 25 25 47 53 50 60 3 8 18 22 34 31 17 10 37 36 50 66 21 46 21 51 6 82 -8
19 -17 45 -18 60 -6 50 -19 39 -14 -12 3 -28 1 -58 -3 -65 -6 -9 -9 -6 -9 10
0 12 -4 22 -10 22 -5 0 -10 -5 -10 -11 0 -5 -5 -7 -10 -4 -6 4 -23 -7 -39 -24
-18 -20 -24 -31 -15 -31 8 0 14 -5 14 -12 0 -6 -3 -8 -7 -5 -11 12 -33 -15
-33 -40 0 -19 -4 -24 -16 -19 -8 3 -12 2 -9 -4 6 -10 -12 -32 -48 -59 -16 -13
-17 -12 -8 11 6 15 5 31 -1 42 -7 12 -6 22 4 34 12 15 11 16 -4 3 -10 -7 -18
-18 -18 -23 0 -5 -5 -14 -11 -21 -5 -7 -18 -27 -27 -46 -18 -36 -42 -53 -42
-29 0 8 5 19 12 26 6 6 13 20 14 29 9 60 29 93 59 93 23 0 42 30 31 49 -3 5 1
14 9 21 18 15 20 34 3 25 -7 -4 -5 0 5 9 12 9 17 21 13 34 -4 13 -1 22 9 26
13 4 15 1 10 -14 -7 -23 13 -28 21 -5 4 8 17 15 30 15 13 0 28 9 34 20 8 16 8
20 -4 20 -8 0 -16 5 -18 11 -3 8 -10 6 -20 -5 -22 -22 -26 -20 -20 9 2 15 0
25 -7 25 -6 0 -11 -4 -11 -9 0 -9 -46 -61 -55 -61 -3 0 -5 6 -4 13 4 28 -1 41
-11 31 -6 -6 -12 -33 -14 -60 -5 -68 -4 -67 -22 -60 -8 3 -13 2 -9 -3 3 -5 -4
-25 -15 -44 -12 -19 -19 -39 -18 -43 3 -10 -5 -14 -26 -14 -16 0 -28 37 -15
46 17 10 9 22 -11 17 -12 -3 -19 -8 -16 -10 9 -9 -22 -67 -38 -69 -12 -2 -14
2 -6 16 6 10 10 28 10 39 0 11 11 33 25 49 30 36 35 92 8 93 -10 0 3 7 30 15
26 8 47 18 48 22 5 75 4 92 -8 97 -8 2 -12 9 -8 14 3 5 -4 16 -16 24 -18 13
-20 21 -14 56 5 30 10 38 22 34 8 -3 13 -13 10 -24 -6 -24 9 -25 22 -1 9 15
12 15 20 2 8 -11 5 -17 -10 -22 -11 -4 -19 -11 -17 -15 23 -48 32 -62 40 -57
4 3 8 14 8 24 0 21 49 60 77 60 15 1 15 3 -5 13 -25 14 -20 27 10 27 10 0 22
-9 26 -21 11 -29 28 -6 34 44 4 37 -5 50 -16 22 -4 -11 -14 -13 -37 -8 -21 4
-34 2 -40 -8 -15 -24 -11 17 6 58 8 19 15 41 15 49 0 7 4 24 10 39 8 22 12 24
30 13 16 -11 22 -9 40 9 11 12 36 25 56 29 24 4 38 13 41 25 3 11 11 19 18 19
7 0 15 7 19 15 6 17 22 20 31 6z m-210 -31 c8 -13 -4 -50 -16 -50 -5 0 -9 6
-9 14 0 8 -5 16 -12 18 -15 5 -1 28 17 28 8 0 17 -5 20 -10z m1477 -12 c-9 -9
-15 -9 -24 0 -9 9 -7 12 12 12 19 0 21 -3 12 -12z m-1537 -12 c20 -14 15 -46
-7 -46 -15 0 -52 -57 -53 -80 0 -30 -45 -86 -85 -108 -23 -12 -44 -22 -46 -22
-2 0 -4 16 -4 35 0 37 10 44 30 20 16 -19 34 -20 27 -1 -3 7 -1 18 5 24 10 10
3 19 -37 46 -18 13 -18 15 15 52 34 40 107 94 126 94 5 0 19 -6 29 -14z m3004
-21 c18 -31 19 -36 5 -42 -20 -7 -30 4 -39 45 -9 43 8 41 34 -3z m-2279 -64
c0 -12 -20 -25 -27 -18 -7 7 6 27 18 27 5 0 9 -4 9 -9z m2290 -40 c0 -9 3 -25
6 -37 4 -15 -1 -23 -23 -33 -39 -18 -37 -18 -44 22 -4 28 -1 42 13 56 20 23
48 18 48 -8z m-3390 9 c0 -5 -10 -10 -22 -10 -19 0 -20 2 -8 10 19 13 30 13
30 0z m155 -61 c-8 -12 -35 -12 -35 0 0 11 22 20 33 14 4 -2 5 -9 2 -14z
m3152 -11 c-3 -8 -6 -5 -6 6 -1 11 2 17 5 13 3 -3 4 -12 1 -19z m-87 4 c0 -4
-9 -8 -20 -9 -11 -1 -20 2 -20 8 0 5 9 9 20 9 11 0 20 -4 20 -8z m350 -14 c0
-18 -2 -20 -9 -8 -6 8 -7 18 -5 22 9 14 14 9 14 -14z m-2685 2 c-3 -5 -11 -10
-16 -10 -6 0 -7 5 -4 10 3 6 11 10 16 10 6 0 7 -4 4 -10z m2635 0 c0 -5 -4
-10 -10 -10 -5 0 -10 5 -10 10 0 6 5 10 10 10 6 0 10 -4 10 -10z m-77 -14 c6
-15 -1 -26 -15 -26 -4 0 -8 9 -8 20 0 23 15 27 23 6z m-3443 -6 c0 -5 -2 -10
-4 -10 -3 0 -8 5 -11 10 -3 6 -1 10 4 10 6 0 11 -4 11 -10z m850 -10 c0 -5 -4
-10 -10 -10 -5 0 -10 5 -10 10 0 6 5 10 10 10 6 0 10 -4 10 -10z m-860 -30 c7
-14 8 -26 0 -39 -5 -11 -7 -27 -4 -35 3 -9 1 -16 -5 -16 -6 0 -11 7 -11 15 0
8 -4 15 -9 15 -15 0 -23 51 -10 66 16 19 26 18 39 -6z m2497 -27 c45 -36 63
-67 83 -145 7 -26 19 -53 26 -59 8 -6 14 -16 14 -22 0 -6 8 -19 18 -30 16 -19
16 -20 0 -14 -12 4 -18 1 -18 -7 0 -18 22 -26 51 -19 14 4 20 2 16 -4 -4 -6 2
-22 13 -35 11 -14 16 -28 13 -32 -3 -3 2 -6 11 -6 12 0 16 -5 12 -16 -5 -12
-1 -14 17 -9 22 7 22 7 2 -9 -19 -15 -19 -15 -1 -16 10 0 39 -7 65 -15 25 -8
80 -22 121 -31 94 -19 103 -25 103 -63 0 -19 5 -31 14 -31 7 0 19 -11 25 -25
6 -14 15 -25 20 -25 4 0 8 -12 8 -27 1 -23 2 -25 10 -11 6 9 11 28 12 42 2 24
28 38 28 15 0 -5 8 -9 18 -8 25 4 62 -23 62 -45 0 -11 7 -28 17 -38 14 -16 15
-18 0 -18 -9 0 -19 -5 -23 -12 -4 -6 -3 -8 3 -5 15 9 37 -19 30 -38 -4 -8 -2
-17 3 -20 5 -3 7 -12 4 -19 -3 -8 -1 -17 5 -21 23 -14 11 -32 -19 -27 -18 3
-30 0 -30 -7 0 -6 4 -11 9 -11 5 0 9 -6 8 -12 -1 -39 5 -58 18 -58 8 0 15 -4
15 -10 0 -19 2 -25 11 -36 6 -8 4 -14 -6 -18 -13 -5 -13 -8 2 -26 21 -25 30
-25 36 -2 3 11 7 6 12 -16 5 -21 16 -37 30 -42 17 -6 24 -19 27 -47 3 -21 3
-46 0 -55 -3 -14 -51 -38 -87 -43 -5 -1 -15 -3 -21 -3 -7 -1 -9 -13 -6 -28 3
-16 -1 -30 -9 -35 -11 -7 -10 -9 4 -9 9 0 17 -4 17 -10 0 -5 -5 -10 -11 -10
-7 0 -9 -10 -5 -24 7 -30 -7 -41 -27 -21 -9 8 -20 15 -26 15 -14 0 -31 33 -31
60 0 11 -7 34 -15 50 -14 28 -14 30 7 42 13 7 26 11 31 10 12 -3 8 11 -10 30
-14 16 -15 21 -4 28 11 6 10 10 -6 18 -11 6 -25 28 -31 50 -14 47 -15 65 -3
57 5 -3 12 -1 16 5 3 5 -1 10 -9 10 -9 0 -16 5 -16 11 0 7 9 9 22 6 22 -6 48
7 48 24 0 10 -22 8 -30 -2 -3 -3 -17 -9 -32 -13 -24 -5 -28 -3 -28 13 0 14 -5
19 -15 15 -8 -4 -15 -1 -15 5 0 6 -10 11 -22 12 -13 0 -17 3 -10 6 19 8 14 30
-9 36 -16 4 -20 11 -16 26 4 17 2 18 -19 9 -22 -10 -22 -12 -9 -39 14 -26 30
-159 19 -159 -19 0 -35 39 -25 60 2 3 5 18 7 34 5 27 4 28 -13 15 -16 -12 -17
-12 -6 2 7 8 9 26 6 39 -6 22 -7 23 -14 4 -6 -16 -8 -16 -8 -2 -1 24 -36 80
-44 71 -4 -3 -7 -1 -7 6 0 7 7 11 15 8 22 -9 29 12 10 33 -13 14 -13 19 -3 23
7 3 1 6 -13 6 -14 1 -29 4 -32 8 -10 9 31 35 43 28 6 -4 8 11 5 39 -2 26 0 46
5 46 6 0 10 5 10 12 0 9 -3 9 -12 0 -7 -7 -20 -12 -30 -12 -10 0 -18 -4 -18
-10 0 -18 -18 -10 -23 10 -3 11 0 20 6 20 8 0 8 3 2 8 -6 4 -10 13 -9 20 1 6
2 16 3 21 0 5 10 11 21 14 29 7 25 23 -12 41 -39 20 -38 20 -38 -5 0 -16 -4
-19 -20 -14 -26 8 -26 -3 0 -25 20 -18 20 -18 -2 -23 -13 -4 -33 -16 -46 -27
-24 -22 -47 -18 -38 7 7 17 -12 47 -33 51 -7 1 -19 -5 -26 -15 -11 -15 -12
-14 -12 11 0 19 7 31 21 37 28 13 34 89 6 82 -16 -4 -32 -41 -44 -98 -2 -12
-4 -8 -5 11 -1 23 -7 33 -21 37 -23 6 -27 37 -5 37 10 0 7 8 -10 26 -14 15
-26 32 -26 38 -4 38 -19 67 -30 60 -12 -7 -11 3 3 25 8 13 9 26 2 41 -9 20
-11 21 -23 6 -11 -14 -11 -16 3 -16 9 0 16 -7 16 -15 0 -8 -4 -15 -10 -15 -5
0 -10 5 -10 11 0 5 -4 7 -10 4 -9 -5 -15 36 -11 71 1 7 -10 14 -24 16 -24 5
-25 3 -19 -28 5 -26 2 -35 -10 -40 -22 -8 -20 -42 4 -89 11 -21 18 -40 16 -42
-9 -10 -46 53 -46 77 0 29 -16 48 -59 67 -24 11 -25 11 -4 12 12 1 25 -3 28
-9 9 -14 22 -12 28 4 4 9 1 13 -6 10 -7 -2 -23 6 -36 20 l-23 25 21 13 c13 8
21 23 21 40 0 34 30 42 47 13 10 -16 12 -17 13 -3 0 22 -29 50 -46 44 -8 -3
-14 -1 -14 4 0 6 -5 10 -11 10 -8 0 -9 -14 -5 -42 l6 -43 -20 25 c-10 14 -17
33 -14 43 3 9 1 17 -4 17 -18 0 -21 -29 -6 -59 11 -23 12 -35 4 -51 -11 -21
-54 -28 -65 -9 -4 6 0 9 10 7 10 -2 20 2 22 9 3 7 -5 10 -22 9 -14 -2 -28 1
-31 5 -3 5 -1 9 4 9 6 0 5 10 -1 25 -7 14 -17 25 -24 25 -18 0 -33 34 -33 75
0 32 3 36 23 33 18 -2 22 -9 20 -32 -1 -16 -7 -33 -14 -37 -6 -4 -8 -12 -5
-18 10 -16 26 -14 26 3 0 8 9 18 20 21 11 3 20 12 20 18 1 7 5 6 13 -3 7 -9
22 -16 35 -17 l23 -2 -26 30 c-14 17 -25 35 -25 40 0 5 26 8 58 7 48 -1 63 -7
99 -35z m323 6 c0 -11 -4 -17 -10 -14 -5 3 -10 15 -10 26 0 11 5 17 10 14 6
-3 10 -15 10 -26z m-2666 5 c9 -8 16 -25 16 -37 0 -21 20 -62 20 -43 0 5 8 2
18 -6 9 -8 25 -18 35 -21 10 -4 15 -12 11 -18 -4 -8 -9 -7 -16 2 -7 11 -11 11
-15 2 -6 -16 -33 -17 -33 -2 0 6 -13 23 -29 38 -17 16 -32 43 -36 64 -8 40 3
48 29 21z m81 7 c3 -5 1 -12 -5 -16 -5 -3 -10 1 -10 9 0 18 6 21 15 7z m3010
-11 c3 -5 -3 -10 -14 -10 -12 0 -21 5 -21 10 0 6 6 10 14 10 8 0 18 -4 21 -10z
m-3402 -45 c-3 -9 -8 -14 -10 -11 -3 3 -2 9 2 15 9 16 15 13 8 -4z m1058 -35
c-19 -17 -36 -28 -39 -26 -6 6 50 55 63 56 6 0 -5 -14 -24 -30z m-1047 -5 c7
-19 -3 -47 -15 -39 -12 7 -12 54 0 54 5 0 11 -7 15 -15z m276 -26 c0 -5 -8 -9
-17 -10 -15 0 -14 -3 5 -16 12 -8 22 -20 22 -25 0 -7 -5 -6 -13 1 -8 6 -17 8
-20 5 -3 -4 -13 0 -21 9 -13 13 -13 17 5 36 19 20 39 21 39 0z m3480 -23 c0
-3 -4 -8 -10 -11 -5 -3 -10 -1 -10 4 0 6 5 11 10 11 6 0 10 -2 10 -4z m87 -21
c8 -8 13 -20 11 -26 -2 -7 -12 0 -21 15 -19 29 -14 35 10 11z m-1007 -40 c0
-8 -7 -15 -15 -15 -16 0 -20 12 -8 23 11 12 23 8 23 -8z m1057 -7 c-3 -8 -6
-5 -6 6 -1 11 2 17 5 13 3 -3 4 -12 1 -19z m-2677 10 c1 -2 3 -20 6 -42 l6
-38 -44 7 c-43 7 -85 24 -60 25 6 0 12 7 12 15 0 8 9 15 19 15 11 0 23 5 26
10 5 9 34 15 35 8z m-192 -29 c39 -13 34 -44 -6 -34 -16 4 -28 1 -33 -7 -5 -8
-7 -1 -5 17 5 42 1 39 44 24z m82 -29 c0 -5 -5 -10 -11 -10 -5 0 -7 5 -4 10 3
6 8 10 11 10 2 0 4 -4 4 -10z m2337 -26 c14 -13 14 -17 2 -25 -18 -11 -30 -11
-48 0 -12 8 -12 11 0 25 18 20 27 20 46 0z m-867 -14 c0 -5 -2 -10 -4 -10 -3
0 -8 5 -11 10 -3 6 -1 10 4 10 6 0 11 -4 11 -10z m100 -14 c0 -8 -4 -17 -9
-21 -12 -7 -24 12 -16 25 9 15 25 12 25 -4z m208 -28 c7 1 12 -3 12 -9 0 -6
-7 -8 -16 -5 -9 3 -20 6 -25 6 -5 0 -9 12 -9 28 l0 27 13 -25 c8 -14 19 -24
25 -22z m240 31 c-2 -6 -8 -10 -13 -10 -5 0 -11 4 -13 10 -2 6 4 11 13 11 9 0
15 -5 13 -11z m502 -34 c0 -15 -21 -12 -30 5 -11 20 -10 21 9 10 12 -6 21 -13
21 -15z m-1181 -9 c9 -10 8 -16 -4 -26 -13 -11 -15 -8 -15 14 0 30 3 32 19 12z
m798 -11 c-9 -9 -16 -10 -25 -2 -11 9 -11 12 5 18 25 9 36 1 20 -16z m481 -3
l22 -14 -21 -19 c-28 -25 -33 -24 -25 4 4 16 -1 27 -17 40 -20 15 -20 17 -2
10 11 -3 30 -13 43 -21z m72 7 c0 -6 -4 -7 -10 -4 -5 3 -10 11 -10 16 0 6 5 7
10 4 6 -3 10 -11 10 -16z m-3497 -5 c10 -10 -12 -44 -28 -44 -23 0 -28 20 -9
35 21 16 28 18 37 9z m657 -14 c0 -11 -4 -20 -10 -20 -5 0 -10 -11 -10 -25 0
-14 -4 -25 -9 -25 -5 0 -7 -10 -3 -22 5 -20 6 -21 12 -3 5 13 9 15 14 6 4 -6
2 -18 -4 -26 -6 -8 -9 -23 -5 -35 4 -11 2 -20 -4 -20 -15 0 -33 38 -25 52 4 7
3 8 -4 4 -8 -5 -11 4 -10 26 0 18 -2 44 -6 58 -4 14 -4 20 1 15 4 -6 14 -11
22 -10 18 0 27 25 9 25 -10 0 -9 3 2 10 23 15 30 12 30 -10z m2740 0 c0 -5 -4
-10 -10 -10 -5 0 -10 5 -10 10 0 6 5 10 10 10 6 0 10 -4 10 -10z m-3002 -14
c-7 -8 -15 -12 -17 -11 -5 6 10 25 20 25 5 0 4 -6 -3 -14z m1782 -27 c0 -5 -7
-12 -15 -15 -8 -4 -15 -13 -15 -21 0 -8 -4 -11 -10 -8 -14 9 -13 33 2 49 13
14 38 11 38 -5z m1165 11 c3 -5 -1 -10 -9 -10 -9 0 -16 5 -16 10 0 6 4 10 9
10 6 0 13 -4 16 -10z m115 -20 c0 -11 -2 -20 -4 -20 -2 0 -6 9 -9 20 -3 11 -1
20 4 20 5 0 9 -9 9 -20z m-3070 -4 c0 -3 -4 -8 -10 -11 -5 -3 -10 -1 -10 4 0
6 5 11 10 11 6 0 10 -2 10 -4z m-460 -36 c9 -16 8 -20 -5 -20 -8 0 -15 9 -15
20 0 11 2 20 5 20 2 0 9 -9 15 -20z m1610 -10 c0 -5 -4 -10 -10 -10 -5 0 -10
5 -10 10 0 6 5 10 10 10 6 0 10 -4 10 -10z m860 -36 c0 -8 -4 -14 -10 -14 -5
0 -10 9 -10 21 0 11 5 17 10 14 6 -3 10 -13 10 -21z m-2610 6 c0 -5 -5 -10
-11 -10 -5 0 -7 5 -4 10 3 6 8 10 11 10 2 0 4 -4 4 -10z m222 -12 c-7 -7 -12
-8 -12 -2 0 14 12 26 19 19 2 -3 -1 -11 -7 -17z m188 12 c0 -5 -4 -10 -10 -10
-5 0 -10 5 -10 10 0 6 5 10 10 10 6 0 10 -4 10 -10z m1384 -6 c9 -22 8 -24 -9
-24 -8 0 -15 9 -15 20 0 24 15 27 24 4z m909 -10 c-4 -13 -26 -11 -30 3 -2 6
4 10 14 9 10 -2 17 -7 16 -12z m-63 -10 c0 -8 -4 -12 -10 -9 -5 3 -10 10 -10
16 0 5 5 9 10 9 6 0 10 -7 10 -16z m-2370 -14 c0 -5 -5 -10 -11 -10 -5 0 -7 5
-4 10 3 6 8 10 11 10 2 0 4 -4 4 -10z m-309 -47 c-8 -15 -10 -11 -9 15 1 26 3
30 10 18 5 -10 5 -23 -1 -33z m26 0 c-3 -10 -5 -2 -5 17 0 19 2 27 5 18 2 -10
2 -26 0 -35z m169 38 c-4 -5 8 -13 26 -17 l33 -8 -30 -6 c-43 -9 -57 -2 -44
21 5 10 12 19 15 19 3 0 3 -4 0 -9z m2264 -16 c0 -14 -6 -25 -13 -25 -21 0
-27 11 -16 31 14 27 29 23 29 -6z m-2500 5 c0 -5 -5 -10 -11 -10 -5 0 -7 5 -4
10 3 6 8 10 11 10 2 0 4 -4 4 -10z m930 -15 c0 -8 -4 -15 -10 -15 -5 0 -7 7
-4 15 4 8 8 15 10 15 2 0 4 -7 4 -15z m66 -32 c-3 -3 1 -11 9 -17 11 -8 12
-15 4 -26 -9 -13 -10 -12 -5 3 3 11 0 17 -9 17 -10 0 -15 10 -15 33 1 27 2 29
11 14 6 -10 8 -21 5 -24z m2001 5 c-3 -8 -6 -5 -6 6 -1 11 2 17 5 13 3 -3 4
-12 1 -19z m-2798 -1 c-2 -1 -13 -9 -24 -17 -19 -14 -19 -14 -6 3 7 9 18 17
24 17 6 0 8 -1 6 -3z m-179 -17 c-20 -13 -33 -13 -25 0 3 6 14 10 23 10 15 0
15 -2 2 -10z m510 -35 c0 -8 -7 -15 -16 -15 -14 0 -14 3 -4 15 7 8 14 15 16
15 2 0 4 -7 4 -15z m1980 -5 c0 -5 -7 -10 -15 -10 -8 0 -15 5 -15 10 0 6 7 10
15 10 8 0 15 -4 15 -10z m-539 -72 c8 -30 3 -38 -22 -38 -24 0 -32 16 -25 46
9 33 37 28 47 -8z m1769 18 c0 -3 -4 -8 -10 -11 -5 -3 -10 -1 -10 4 0 6 5 11
10 11 6 0 10 -2 10 -4z m55 -26 c-3 -5 -1 -10 5 -10 6 0 8 -5 4 -12 -6 -9 -9
-9 -12 0 -2 7 -13 12 -25 13 -21 0 -21 1 -2 9 28 12 37 12 30 0z m-95 -14 c0
-3 -4 -8 -10 -11 -5 -3 -10 -1 -10 4 0 6 5 11 10 11 6 0 10 -2 10 -4z m-3440
-30 c0 -3 -4 -8 -10 -11 -5 -3 -10 -1 -10 4 0 6 5 11 10 11 6 0 10 -2 10 -4z
m2650 -18 c0 -4 -9 -8 -20 -8 -11 0 -20 4 -20 9 0 6 9 9 20 8 11 -1 20 -5 20
-9z m-2886 -87 c-21 -16 -41 -27 -44 -24 -3 2 2 8 10 13 8 5 24 16 35 24 11 8
24 16 29 16 5 0 -8 -13 -30 -29z m230 -16 c3 -8 1 -15 -4 -15 -6 0 -10 7 -10
15 0 8 2 15 4 15 2 0 6 -7 10 -15z m189 -17 c-24 -23 -40 -20 -30 7 4 8 17 15
29 15 l22 0 -21 -22z m-268 -27 c-3 -6 -11 -11 -17 -11 -6 0 -6 6 2 15 14 17
26 13 15 -4z m3345 -31 c0 -5 -2 -10 -4 -10 -3 0 -8 5 -11 10 -3 6 -1 10 4 10
6 0 11 -4 11 -10z m-242 -59 c3 -21 1 -23 -12 -11 -9 7 -16 27 -16 44 1 28 2
29 12 11 7 -11 14 -31 16 -44z m596 24 c3 -8 1 -15 -4 -15 -6 0 -10 7 -10 15
0 8 2 15 4 15 2 0 6 -7 10 -15z m-3794 -45 c0 -5 -7 -10 -15 -10 -8 0 -15 5
-15 10 0 6 7 10 15 10 8 0 15 -4 15 -10z m3550 -80 c0 -5 -5 -10 -11 -10 -5 0
-7 5 -4 10 3 6 8 10 11 10 2 0 4 -4 4 -10z m-3360 -29 c0 -6 -4 -13 -10 -16
-5 -3 -10 1 -10 9 0 9 5 16 10 16 6 0 10 -4 10 -9z m3070 -11 c0 -5 -7 -7 -15
-4 -8 4 -15 8 -15 10 0 2 7 4 15 4 8 0 15 -4 15 -10z m194 -75 c3 -9 0 -15 -8
-15 -7 0 -19 7 -26 15 -10 12 -9 15 8 15 11 0 22 -7 26 -15z m-3421 -40 c-3
-10 -10 -10 -27 -2 -13 6 -21 17 -19 24 4 9 -1 11 -13 7 -15 -5 -16 -4 -4 4
18 13 71 -15 63 -33z m3364 30 c8 -8 19 -13 24 -10 5 4 9 2 9 -3 0 -6 9 -8 20
-5 11 3 20 0 20 -6 0 -6 8 -11 18 -12 14 0 14 -2 -3 -9 -19 -8 -19 -9 -1 -9
16 -1 15 -4 -8 -22 -15 -12 -30 -18 -33 -15 -4 3 2 13 13 21 18 14 17 14 -13
15 -19 0 -33 5 -33 12 0 6 -10 22 -22 35 -23 25 -16 32 9 8z m-3044 -55 c3
-11 1 -18 -4 -14 -5 3 -9 12 -9 20 0 20 7 17 13 -6z m-173 -50 c0 -5 -5 -10
-11 -10 -5 0 -7 5 -4 10 3 6 8 10 11 10 2 0 4 -4 4 -10z m3194 -72 c21 -30 20
-38 -4 -38 -17 0 -40 32 -40 56 0 13 31 1 44 -18z m-2982 -10 c-7 -7 -12 -8
-12 -2 0 14 12 26 19 19 2 -3 -1 -11 -7 -17z m-62 -43 c0 -8 -4 -15 -10 -15
-5 0 -10 7 -10 15 0 8 5 15 10 15 6 0 10 -7 10 -15z"/>
<path d="M2814 3569 c-3 -6 -1 -16 5 -22 8 -8 11 -5 11 11 0 24 -5 28 -16 11z"/>
<path d="M2697 3556 c-5 -11 41 -56 58 -56 11 0 3 26 -14 48 -22 25 -37 28
-44 8z"/>
<path d="M2856 3508 c6 -21 31 -47 45 -48 4 0 9 -9 12 -20 3 -11 10 -20 17
-20 8 0 10 13 5 43 -9 51 -10 53 -30 37 -12 -10 -18 -10 -30 0 -8 7 -12 16 -9
21 3 5 0 9 -6 9 -7 0 -9 -8 -4 -22z"/>
<path d="M2666 3485 c4 -8 12 -15 20 -15 8 0 11 6 8 15 -4 8 -12 15 -20 15 -8
0 -11 -6 -8 -15z"/>
<path d="M2745 3430 c3 -5 11 -10 16 -10 6 0 7 5 4 10 -3 6 -11 10 -16 10 -6
0 -7 -4 -4 -10z"/>
<path d="M2940 3281 c0 -11 6 -21 14 -21 7 0 19 -7 26 -15 13 -16 50 -21 50
-7 0 14 -49 56 -57 49 -3 -4 -12 -2 -20 4 -10 9 -13 7 -13 -10z"/>
<path d="M3045 3277 c2 -35 27 -64 52 -62 35 3 40 16 13 34 -13 9 -33 24 -42
34 -23 22 -24 22 -23 -6z"/>
<path d="M2690 3280 c0 -5 5 -10 10 -10 6 0 10 5 10 10 0 6 -4 10 -10 10 -5 0
-10 -4 -10 -10z"/>
<path d="M3445 3060 c-3 -5 -1 -10 4 -10 6 0 11 5 11 10 0 6 -2 10 -4 10 -3 0
-8 -4 -11 -10z"/>
<path d="M3151 3033 c-18 -19 -10 -25 12 -8 10 7 15 15 10 18 -4 3 -14 -2 -22
-10z"/>
<path d="M2910 2917 c0 -8 7 -18 16 -21 11 -4 14 -1 12 11 -4 21 -28 30 -28
10z"/>
<path d="M3183 2913 c4 -3 3 -11 -3 -18 -6 -7 -3 -17 10 -28 18 -15 20 -15 30
3 6 11 18 20 27 20 13 0 13 3 3 15 -7 8 -26 15 -43 15 -17 0 -27 -3 -24 -7z"/>
<path d="M670 3034 c-13 -34 -13 -44 4 -44 17 0 49 47 41 60 -11 19 -35 10
-45 -16z"/>
<path d="M818 2654 c-5 -4 -8 -16 -8 -28 0 -14 3 -17 11 -9 6 6 9 19 7 28 -1
9 -6 13 -10 9z"/>
<path d="M2730 2704 c0 -8 5 -12 10 -9 6 3 10 10 10 16 0 5 -4 9 -10 9 -5 0
-10 -7 -10 -16z"/>
<path d="M2840 2479 c0 -5 5 -7 10 -4 6 3 10 8 10 11 0 2 -4 4 -10 4 -5 0 -10
-5 -10 -11z"/>
<path d="M3040 2380 c0 -5 5 -10 10 -10 6 0 10 5 10 10 0 6 -4 10 -10 10 -5 0
-10 -4 -10 -10z"/>
<path d="M3201 2154 c0 -11 3 -14 6 -6 3 7 2 16 -1 19 -3 4 -6 -2 -5 -13z"/>
<path d="M3470 1677 c0 -18 43 -37 81 -37 24 0 30 4 27 18 -3 13 -13 17 -41
16 -20 0 -37 3 -37 8 0 4 -7 8 -15 8 -8 0 -15 -6 -15 -13z"/>
<path d="M3435 1630 c-3 -5 -1 -10 4 -10 6 0 11 5 11 10 0 6 -2 10 -4 10 -3 0
-8 -4 -11 -10z"/>
<path d="M1250 2620 c0 -5 4 -10 9 -10 6 0 13 5 16 10 3 6 -1 10 -9 10 -9 0
-16 -4 -16 -10z"/>
<path d="M3785 3380 c-8 -13 4 -32 16 -25 12 8 12 35 0 35 -6 0 -13 -4 -16
-10z"/>
<path d="M3770 3320 c0 -5 5 -10 10 -10 6 0 10 5 10 10 0 6 -4 10 -10 10 -5 0
-10 -4 -10 -10z"/>
<path d="M138 3202 c-14 -15 -51 -43 -82 -62 -38 -24 -55 -42 -56 -56 0 -17 5
-20 26 -16 14 2 30 15 36 28 6 13 26 28 44 34 33 11 115 73 122 91 2 5 -11 9
-30 9 -22 0 -41 -9 -60 -28z"/>
<path d="M160 3133 c0 -7 5 -13 10 -13 6 0 10 -7 8 -16 -5 -29 17 -26 47 6
l29 30 -25 1 c-13 0 -34 2 -46 3 -14 2 -23 -3 -23 -11z"/>
<path d="M132 3089 c-13 -5 -20 -13 -17 -19 7 -12 45 5 45 20 0 6 -1 10 -2 9
-2 0 -13 -4 -26 -10z"/>
<path d="M27 3053 c-4 -3 -7 -11 -7 -17 0 -6 5 -5 12 2 6 6 9 14 7 17 -3 3 -9
2 -12 -2z"/>
<path d="M40 2930 c0 -5 5 -10 10 -10 6 0 10 5 10 10 0 6 -4 10 -10 10 -5 0
-10 -4 -10 -10z"/>
<path d="M32 2613 c-7 -3 -16 -13 -22 -22 -8 -15 -6 -17 16 -13 13 2 27 9 30
14 8 13 -8 27 -24 21z"/>
<path d="M0 2540 c0 -5 5 -10 10 -10 6 0 10 5 10 10 0 6 -4 10 -10 10 -5 0
-10 -4 -10 -10z"/>
</g>
</svg>
